<svg xmlns="http://www.w3.org/2000/svg" xmlns:v="http://vecta.io" xmlns:xlink="http://www.w3.org/1999/xlink" viewBox="0 0 66 40" stroke="#000" stroke-linecap="round" stroke-linejoin="round" fill="#fff" fill-rule="evenodd" font-family="Roboto" font-size="14px" text-anchor="middle" width="300" height="300"><defs><style type="text/css"></style></defs><g><title>expressjs-icon</title><use xlink:href="#W1f3fOYerQtsAk8C9Ol58e.sym" x="1" y="1"></use></g><symbol id="W1f3fOYerQtsAk8C9Ol58e.sym" overflow="visible" v:tags="express.js, logo, javascript, programming library"><title>expressjs-icon</title><g id="juhn04nqau7" transform="translate(0 0)" class="" v:size="66,40,1,1"><path d="M 64 36.167407991611 C 61.6719970703125 36.7594108602633 60.2319946289063 36.1934089681735 58.9400024414063 34.2534065267672 L 49.7520141601563 21.5414161703219 L 48.4240112304688 19.7814064046969 L 37.6940002441406 34.2954139730563 C 36.4679870605469 36.0414161703219 35.1820068359375 36.8014106771578 32.8940124511719 36.1834144613375 L 46.6340026855469 17.7394142171969 L 33.8420104980469 1.0794105550875 C 36.0419921875 0.6514091512789 37.56201171875 0.8694114706149 38.9119873046875 2.839412691318 L 48.4420166015625 15.7094154379 L 58.0419921875 2.9094123861422 C 59.2720031738281 1.1634101888766 60.593994140625 0.4994087240328 62.802001953125 1.1434135458102 L 57.8420104980469 7.719409944736 L 51.1220092773438 16.469409944736 C 50.3219909667969 17.469409944736 50.4320068359375 18.1534156820406 51.1679992675781 19.1194114706149 L 64 36.167407991611 Z M 0.0159912109375 17.4314155599703 L 1.1400146484375 11.9034156820406 C 4.2000122070313 0.9634132406344 16.739990234375 -3.582592008389 25.3880004882813 3.1774101278414 C 30.4419860839844 7.1534156820406 31.697998046875 12.7774086019625 31.447998046875 19.0774116537203 L 2.9599914550781 19.0774116537203 C 2.5320129394531 30.417407991611 10.6940002441406 37.2614097616305 21.1000061035156 33.7694129964938 C 24.75 32.5434150716891 26.8999938964844 29.6854133627047 27.9760131835938 26.1094093343844 C 28.5220031738281 24.3174171468844 29.4259948730469 24.037410738193 31.1099853515625 24.5494117757906 C 30.25 29.021411897861 28.3099975585938 32.7574119588961 24.2099914550781 35.0954170248141 C 18.083984375 38.5954170248141 9.3399963378906 37.4634132406344 4.739990234375 32.5994148275485 C 2 29.7774086019625 0.8680114746094 26.2014122030367 0.3599853515625 22.3774147054781 C 0.2799987792969 21.7454109212985 0.1199951171875 21.1434135458102 0 20.537410738193 Q 0.0159912109375 18.9854164144625 0.0159912109375 17.4334144613375 Z M 3.0119934082031 16.6714134237399 L 28.7560119628906 16.6714134237399 C 28.5880126953125 8.4714088461031 23.4819946289063 2.6474113485445 16.5039978027344 2.5974159261813 C 8.843994140625 2.537410738193 3.343994140625 8.2234077474703 3.0119934082031 16.6714134237399 Z" stroke="none" fill="#000000" stroke-width="2"></path></g></symbol></svg>