<?xml version="1.0" encoding="utf-8"?>
<!-- Generator: Adobe Illustrator 23.0.0, SVG Export Plug-In . SVG Version: 6.00 Build 0)  -->
<svg version="1.1" id="Layer_1" xmlns="http://www.w3.org/2000/svg" xmlns:xlink="http://www.w3.org/1999/xlink" x="0px" y="0px"
	 viewBox="0 0 1234.5 440.2" style="enable-background:new 0 0 1234.5 440.2;" xml:space="preserve">
<style type="text/css">
	.st0{fill-rule:evenodd;clip-rule:evenodd;fill:#26313D;}
	.st1{fill-rule:evenodd;clip-rule:evenodd;fill:#F6B51B;}
	.st2{fill-rule:evenodd;clip-rule:evenodd;fill:#417EB8;}
	.st3{fill-rule:evenodd;clip-rule:evenodd;fill:url(#SVGID_1_);}
	.st4{clip-path:url(#SVGID_2_);}
	.st5{fill-rule:evenodd;clip-rule:evenodd;fill:#162331;}
	.st6{fill-rule:evenodd;clip-rule:evenodd;fill:#5591C6;}
	.st7{fill-rule:evenodd;clip-rule:evenodd;fill:#88BAE4;}
	.st8{fill:#26313D;}
</style>
<g>
	<g id="m:_Stroked_in_Illustrator_1.2_center_9_">
		<g>
			<path class="st0" d="M564.5,100.2c-26.5,0-47.9,10.7-65.3,32.6c-11.7-21.1-32.4-32.6-58.5-32.6c-28.9,0-45.9,15-57.4,29.7v-25.6
				h-48.5v194.7h48.5v-108c0-28.1,15.6-46.3,39.7-46.3c23.8,0,37.5,16.5,37.5,45.2v109.1h48.5v-108c0-28.6,15.2-46.3,39.7-46.3
				c24.2,0,37.5,16.2,37.5,45.6v108.7h48.5V176.5C634.6,128.7,608.4,100.2,564.5,100.2z"/>
		</g>
	</g>
	<g id="Lab_9_">
		<g>
			<path class="st1" d="M730.9,37.2h-48.1v261.6h140.8v-47.4h-92.7V37.2z M1208.1,129.2c-17.7-19.1-39.1-28.6-64.3-28.6
				c-11.6,0-22.5,2.2-32.7,6.6c-10.2,4.4-19.7,11-28.4,19.7V41.4h-48.2v257.4h48.2v-20.4c9.5,9,19,15.5,28.6,19.4
				c9.6,4,20,5.9,31.1,5.9c25,0,46.6-9.7,64.9-29c18.2-19.4,27.4-43.4,27.4-72.2C1234.5,172.7,1225.7,148.3,1208.1,129.2z
				 M1171,243.2c-10.1,10.8-22.6,16.2-37.4,16.2c-15.3,0-28-5.3-38-15.9c-10.1-10.6-15.1-24.5-15.1-41.7c0-16.8,5-30.4,15.1-40.9
				c10.1-10.4,22.8-15.6,38-15.6c15.2,0,27.7,5.3,37.7,15.9c10,10.6,14.9,24.2,14.9,40.8C1186.2,218.7,1181.1,232.5,1171,243.2z
				 M994.2,122.2c-13.9-14.3-37.8-22.2-67.6-22.2c-31.7,0-53.1,6.4-75,16.2l11.9,35.5c18.1-7.5,34.9-11.8,57.1-11.8
				c32,0,49.4,13.4,49.4,41.7v1.6c-15.5-4.9-31.3-8-53.5-8c-48.6,0-82.5,21.1-82.5,64v2.4c0,39.9,33.5,62.1,70.8,62.1
				c30.5,0,51.3-9.2,64.8-25.4v20.6h48.1V183.6C1017.7,152.7,1008.9,136.6,994.2,122.2z M970.7,223.6c0,20.9-22.3,44.8-51.6,44.8
				c-21.2,0-36.8-10.6-36.8-29.3v-0.7c0-20.1,15.9-32.2,44.4-32.2c17.6,0,32.6,3.3,43.9,7.7V223.6z"/>
		</g>
	</g>
</g>
<g>
	<g>
		<path class="st2" d="M165.5,429.4l-0.1-12.5h21.4l0.1,12.5c0,5.9-4.8,10.7-10.7,10.7C170.3,440.2,165.5,435.3,165.5,429.4z"/>
		<path class="st2" d="M106.1,429.4l-0.1-12.5h21.4l0.1,12.5c0,5.9-4.8,10.7-10.7,10.7C110.9,440.2,106.1,435.3,106.1,429.4z"/>
		<path class="st2" d="M46.8,429.4L46.7,417h21.4l0.1,12.5c0,5.9-4.8,10.7-10.7,10.7C51.6,440.2,46.8,435.3,46.8,429.4z"/>
	</g>
	<path class="st2" d="M207.5,403.5l-9.8,16.3H35.2l-9-16.3H207.5z"/>
	<linearGradient id="SVGID_1_" gradientUnits="userSpaceOnUse" x1="8.5603" y1="151.901" x2="225.0857" y2="151.901">
		<stop  offset="0" style="stop-color:#F6AA1C"/>
		<stop  offset="1" style="stop-color:#F7C41C"/>
	</linearGradient>
	<path class="st3" d="M8.6,303.8v-189h0c0.3-51.9,42.2-94.6,96-100.3c2.9-0.7,4.9-2.6,5.6-4c1.6-3,3.3-6.3,4.4-9.1
		c0.7-1.6,3.6-2.1,4.4,0c1.1,2.8,2.8,6,4.4,9c0.8,1.5,2.5,3.3,5.6,4c53.8,5.7,95.6,48.4,95.9,100.3h0v189H8.6z"/>
	<g>
		<defs>
			<path id="SVGID_5_" d="M8.6,303.8v-189h0c0.3-51.9,42.2-94.6,96-100.3c2.9-0.7,4.9-2.6,5.6-4c1.6-3,3.3-6.3,4.4-9.1
				c0.7-1.6,3.6-2.1,4.4,0c1.1,2.8,2.8,6,4.4,9c0.8,1.5,2.5,3.3,5.6,4c53.8,5.7,95.6,48.4,95.9,100.3h0v189H8.6z"/>
		</defs>
		<clipPath id="SVGID_2_">
			<use xlink:href="#SVGID_5_"  style="overflow:visible;"/>
		</clipPath>
		<g class="st4">
			<path class="st5" d="M182.9,235.1c-13,0-17.1,5.2-17.1,14.6c0,16.2,20,35.4,20,65.1c0,21.6-12.8,39.7-40.8,39.7h-13v-26.5h5.8
				c10.3,0,13.7-6,13.7-15.7c0-21.9-12.1-41.9-12.1-58.4c0-16.8,5.5-24.6,25.5-28.9c-20-4.3-25.5-17.3-25.5-34.1
				c0-16.2,12.1-29.7,12.1-51.9c0-9.7-5-17.5-17-17.5c-4.4,0-8.1,0-11.5,0v-20.3c30.1-15.4,55.2,12,55.2,32.3
				c0,29.5-12.4,52.2-12.4,68.4c0,9.2,4,13.3,17.1,13.3h8.9v19.6H182.9z M110.6,121.8c-3.1,0-6.5,0-10.4,0c-12,0-17,7.7-17,17.5
				c0,22.2,12.1,35.7,12.1,51.9c0,16.8-6.6,29.8-26.6,34.1c20,4.3,26.6,12.1,26.6,28.9c0,16.5-12.1,36.5-12.1,58.4
				c0,9.7,3.5,15.7,13.7,15.7h5.8v26.5h-13c-28,0-40.8-18.1-40.8-39.7c0-29.7,20-48.9,20-65.1c0-9.5-3.3-14.6-16.4-14.6H41.8v-19.6
				h10.7c13,0,16.4-4.1,16.4-13.3c0-16.2-12.4-38.9-12.4-68.4c0-20.1,24.4-47.2,54.1-32.7V121.8z"/>
		</g>
	</g>
	<path class="st6" d="M222.2,316.2c-1.2,3.3-1.6,7.3-1.8,10.6c0,0.1,0,0.1,0,0.2v67.8c0,5.9-4.8,10.7-10.7,10.7H24
		c-5.9,0-10.7-4.8-10.7-10.7V327c0-0.1,0-0.2,0-0.2c-0.2-3.3-0.6-7.1-1.8-10.5C8.8,308.7,0,305.6,0,305.6l0.6-4.2h232.5l0.6,4.2
		C233.7,305.6,224.8,308.6,222.2,316.2z"/>
	<path class="st7" d="M220.4,354.3h-72.3c-4.5,0-8.2-3.7-8.2-8.2c0-4.5,3.7-8.2,8.2-8.2h72.3V354.3z"/>
	<path class="st7" d="M13.3,337.9l72.3,0c4.5,0,8.2,3.7,8.2,8.2c0,4.5-3.7,8.2-8.2,8.2l-72.3,0L13.3,337.9z"/>
</g>
<g>
	<path class="st8" d="M374.9,388.9H353l-5.3,16h-11.7l22-62.4h11.9l22,62.4h-11.7L374.9,388.9z M364,353.3c0,0-1.4,6.2-2.6,9.7
		l-5.5,16.7h16.4l-5.5-16.7c-1.1-3.5-2.5-9.7-2.5-9.7H364z"/>
	<path class="st8" d="M424.4,342.5h12.1l12.2,30.9c1.4,3.7,3.2,9.1,3.2,9.1h0.2c0,0,1.7-5.5,3.1-9.1l12.2-30.9h12.1l5,62.4h-11.3
		l-2.6-34.9c-0.3-4.1-0.1-9.7-0.1-9.7h-0.2c0,0-1.8,6.1-3.3,9.7L457,394.2H447L437,370c-1.5-3.6-3.4-9.8-3.4-9.8h-0.2
		c0,0,0.2,5.6-0.1,9.8l-2.6,34.9h-11.3L424.4,342.5z"/>
	<path class="st8" d="M516.2,359c13.7,0,24.7,9.8,24.7,23.5c0,13.8-11,23.5-24.6,23.5c-13.7,0-24.7-9.7-24.7-23.5
		C491.6,368.8,502.6,359,516.2,359z M516.3,396.5c7.2,0,13.3-5.6,13.3-14c0-8.3-6.1-14-13.3-14c-7.3,0-13.4,5.7-13.4,14
		C502.9,390.9,509,396.5,516.3,396.5z"/>
	<path class="st8" d="M549.9,360.1h10.7v5.2c0,1.7-0.2,3.1-0.2,3.1h0.2c1.9-3.8,6.9-9.3,15.9-9.3c9.9,0,15.6,5.2,15.6,17.1v28.8H581
		v-26.6c0-5.5-1.4-9.1-7.1-9.1c-6,0-10.4,3.8-12,9.1c-0.6,1.8-0.8,3.9-0.8,6v20.6h-11.2V360.1z"/>
	<path class="st8" d="M620.7,413.9c6.9,0,12.7-2.9,12.7-10.9v-2.6c0-1.1,0.2-2.4,0.2-2.4h-0.2c-2.6,4-6.5,6.1-12.5,6.1
		c-12.8,0-20.1-10.4-20.1-22.7c0-12.3,6.9-22.3,19.9-22.3c9.8,0,13.3,5.7,13.3,5.7h0.3c0,0-0.1-0.5-0.1-1.2v-3.4h10.5v42.1
		c0,15.4-12,21.2-23.7,21.2c-5.6,0-11.6-1.6-15.9-3.9l3.3-8.5C608.3,411,614,413.9,620.7,413.9z M633.6,381.5
		c0-10.2-5-12.9-11.1-12.9c-6.8,0-10.5,4.9-10.5,12.5c0,7.8,4,13.6,11.3,13.6C628.6,394.6,633.6,391.6,633.6,381.5z"/>
	<path class="st8" d="M676.4,359c13.7,0,24.7,9.8,24.7,23.5c0,13.8-11,23.5-24.6,23.5c-13.7,0-24.7-9.7-24.7-23.5
		C651.7,368.8,662.7,359,676.4,359z M676.5,396.5c7.2,0,13.3-5.6,13.3-14c0-8.3-6.1-14-13.3-14c-7.3,0-13.4,5.7-13.4,14
		C663.1,390.9,669.2,396.5,676.5,396.5z"/>
	<path class="st8" d="M710,342.5h21.3c19.3,0,31.8,11.4,31.8,31.1c0,19.7-12.6,31.3-31.8,31.3H710V342.5z M730.7,395.2
		c12.7,0,20.7-7.5,20.7-21.5c0-13.9-8.3-21.4-20.7-21.4h-9.3v42.9H730.7z"/>
	<path class="st8" d="M771.5,342.5h22.3c11.3,0,19.3,5.8,19.3,16.1c0,5.8-2.8,10.8-7.6,13.4v0.2c6.9,2,10.1,8.4,10.1,14.7
		c0,12.5-10,18.1-21.5,18.1h-22.6V342.5z M793.8,368c4.9,0,7.7-3.5,7.7-8c0-4.5-2.6-7.7-7.9-7.7h-10.8V368H793.8z M795,395.2
		c5.8,0,9.1-3.8,9.1-9.1c0-5.2-3.3-9-9.1-9h-12.1v18H795z"/>
	<path class="st8" d="M877.1,341.4c15.2,0,23,8.5,23,8.5l-5.5,8.4c0,0-7.1-6.6-17.1-6.6c-13.2,0-20.9,9.8-20.9,21.5
		c0,11.9,8,22.3,21,22.3c10.8,0,18.1-7.9,18.1-7.9l6,8.2c0,0-8.6,10.1-24.5,10.1c-19.1,0-32.3-14.2-32.3-32.5
		C845,355.3,858.7,341.4,877.1,341.4z"/>
	<path class="st8" d="M931.7,359c13.7,0,24.7,9.8,24.7,23.5c0,13.8-11,23.5-24.6,23.5c-13.7,0-24.7-9.7-24.7-23.5
		C907.1,368.8,918.1,359,931.7,359z M931.8,396.5c7.2,0,13.3-5.6,13.3-14c0-8.3-6.1-14-13.3-14c-7.3,0-13.4,5.7-13.4,14
		C918.5,390.9,924.5,396.5,931.8,396.5z"/>
	<path class="st8" d="M963.6,360.1h10.7v5.2c0,1.7-0.2,3.1-0.2,3.1h0.2c2.2-4.4,7.6-9.3,14.6-9.3c6.9,0,11.3,3.2,13.1,9.2h0.2
		c2.5-4.8,8.3-9.2,15.3-9.2c9.3,0,14.7,5.3,14.7,17.1v28.8H1021v-26.7c0-5.1-1-9-6.2-9c-5.7,0-9.5,4.6-10.8,10.2
		c-0.4,1.8-0.5,3.7-0.5,5.8v19.7h-11.2v-26.7c0-4.8-0.8-9-6.1-9c-5.8,0-9.6,4.6-11,10.3c-0.4,1.7-0.5,3.7-0.5,5.7v19.7h-11.2V360.1z
		"/>
	<path class="st8" d="M1042.1,360.1h10.2v3.3c0,1.7-0.2,3.1-0.2,3.1h0.2c0,0,3.9-7.4,14.4-7.4c12.1,0,19.9,9.6,19.9,23.5
		c0,14.2-8.7,23.5-20.5,23.5c-8.9,0-12.8-6.2-12.8-6.2h-0.2c0,0,0.2,1.6,0.2,3.9v18.8h-11.2V360.1z M1064.1,396.6
		c6.2,0,11.3-5,11.3-13.9c0-8.5-4.6-14.1-11.2-14.1c-5.8,0-11.3,4.2-11.3,14.2C1052.9,389.7,1056.7,396.6,1064.1,396.6z"/>
	<path class="st8" d="M1118.6,376.8h1.5v-0.6c0-5.9-3.7-7.9-8.6-7.9c-6.4,0-12.3,4.3-12.3,4.3l-4.2-8c0,0,6.9-5.5,17.6-5.5
		c11.8,0,18.6,6.5,18.6,17.9v28h-10.3v-3.7c0-1.8,0.2-3.2,0.2-3.2h-0.2c0.1,0-3.4,7.9-13.6,7.9c-8,0-15.2-5-15.2-14
		C1092.1,377.8,1111.3,376.8,1118.6,376.8z M1110.1,397.3c5.9,0,10.1-6.3,10.1-11.8v-1.1h-1.9c-5.7,0-14.9,0.8-14.9,7
		C1103.3,394.5,1105.5,397.3,1110.1,397.3z"/>
	<path class="st8" d="M1141,360.1h10.7v5.2c0,1.7-0.2,3.1-0.2,3.1h0.2c1.9-3.8,6.9-9.3,15.9-9.3c9.9,0,15.6,5.2,15.6,17.1v28.8
		h-11.1v-26.6c0-5.5-1.4-9.1-7.1-9.1c-6,0-10.4,3.8-12,9.1c-0.6,1.8-0.8,3.9-0.8,6v20.6H1141V360.1z"/>
	<path class="st8" d="M1192.5,412.1c0,0,2.5,1.8,5,1.8c3.1,0,6.1-1.8,7.7-5.8l1.7-4l-18.9-44.1h12.6l9.4,25.8
		c0.9,2.4,1.7,6.1,1.7,6.1h0.2c0,0,0.7-3.5,1.5-5.9l8.8-26h12.2l-20,51.6c-3.2,8.2-9.4,11.7-16.2,11.7c-5.4,0-9.3-2.9-9.3-2.9
		L1192.5,412.1z"/>
</g>
</svg>
